#!OML:ASF I:\Actors\actors\Patient Classification 1\Patient 1\Session 1\Subject1.ASF
:FULLY-SPECIFIED
:DEGREES
552
root 0.732239 17.4628 9.02106 6.71183 0.454175 -9.18405
lowerback -4.90567 1.1459 6.347
upperback -6.99564 1.50388 2.47108
thorax -4.43805 0.520671 -0.965177
lowerneck -10.221 -7.30314 -4.14125
upperneck 23.4894 -11.0671 6.26517
head 9.69728 -4.88526 1.55928
rclavicle 1.03368e-014 -9.74045e-015
rhumerus 5.18638 64.7575 -95.6825
rradius 140.972
rwrist -10.0599
rhand -11.3179 -31.3482
rfingers 7.12502
rthumb 14.7143 -420.806
lclavicle 1.03368e-014 -9.74045e-015
lhumerus -53.6173 -48.1908 128.843
lradius 90.5043
lwrist 76.6883
lhand -6.82917 4.08917
lfingers 7.12502
lthumb 19.0351 33.1777
rfemur -0.321932 22.9857 27.9144
rtibia 4.30098
rfoot -14.0051 -22.0161
rtoes 2.00847
lfemur 8.07779 -40.2798 -11.9808
ltibia -3.61743
lfoot -18.3317 46.5892
ltoes 2.21296
553
root 0.732233 17.4634 9.01433 6.67509 0.471812 -9.16622
lowerback -4.83776 1.13853 6.29979
upperback -7.01522 1.50189 2.46235
thorax -4.49749 0.519845 -0.94938
lowerneck -10.1365 -7.31313 -4.08927
upperneck 23.409 -11.0914 6.28357
head 9.65231 -4.89457 1.55799
rclavicle 1.54804e-014 -2.26615e-014
rhumerus 5.12514 64.7163 -95.7855
rradius 140.95
rwrist -10.0046
rhand -11.2769 -31.371
rfingers 7.12502
rthumb 14.7537 -420.826
lclavicle 1.54804e-014 -2.26615e-014
lhumerus -53.6574 -48.2204 128.88
lradius 90.483
lwrist 76.7388
lhand -6.93426 4.08718
lfingers 7.12502
lthumb 18.934 33.1856
rfemur -0.305879 22.9771 27.8929
rtibia 4.29036
rfoot -14.0057 -22.0183
rtoes 2.08694
lfemur 8.06258 -40.2783 -11.9962
ltibia -3.59447
lfoot -18.172 46.5698
ltoes 2.06254
554
root 0.732223 17.4645 9.00708 6.6366 0.469776 -9.18212
lowerback -4.18519 1.20324 6.51229
upperback -7.44973 1.66452 2.29345
thorax -5.31304 0.556225 -1.2549
lowerneck -9.73571 -7.38138 -4.25561
upperneck 23.6005 -11.2596 6.57003
head 9.68344 -4.96414 1.67571
rclavicle -1.28713e-014 8.34896e-015
rhumerus 3.54592 64.4268 -97.279
rradius 140.942
rwrist -9.72752
rhand -11.1572 -31.2502
rfingers 7.12502
rthumb 14.869 -420.697
lclavicle -1.28713e-014 8.34896e-015
lhumerus -54.7867 -48.0368 129.626
lradius 90.5276
lwrist 76.7142
lhand -6.94779 4.11179
lfingers 7.12502
lthumb 18.921 33.2115
rfemur -0.303148 22.9166 27.9053
rtibia 4.29638
rfoot -13.9505 -21.9702
rtoes 1.8294
lfemur 8.08344 -40.2895 -11.9875
ltibia -3.61081
lfoot -18.0084 46.5967
ltoes 1.82102
555
root 0.733036 17.4653 8.99866 6.62176 0.469725 -9.22938
lowerback -3.96973 1.17128 6.59455
upperback -7.56355 1.64861 2.30853
thorax -5.55852 0.535457 -1.28907
lowerneck -9.66294 -7.34138 -4.47685
upperneck 23.6709 -11.2274 6.79492
head 9.72062 -4.94516 1.79489
rclavicle 1.67476e-014 9.93923e-016
rhumerus 3.21898 64.4003 -97.5618
rradius 140.953
rwrist -9.67617
rhand -11.0195 -31.2383
rfingers 7.12502
rthumb 15.0017 -420.675
lclavicle 1.67476e-014 9.93923e-016
lhumerus -54.9323 -47.8258 129.689
lradius 90.5332
lwrist 76.6556
lhand -6.83599 4.15918
lfingers 7.12502
lthumb 19.0286 33.2484
rfemur -0.347882 22.8947 27.9426
rtibia 4.36432
rfoot -13.97 -21.9363
rtoes 1.84052
lfemur 8.04335 -40.2566 -11.8946
ltibia -3.61088
lfoot -17.957 46.5637
ltoes 1.76837
556
root 0.735681 17.4656 8.99135 6.60843 0.476822 -9.26712
lowerback -4.0167 1.28895 6.67373
upperback -7.53772 1.79447 2.18203
thorax -5.48853 0.602286 -1.46435
lowerneck -9.57723 -7.43204 -4.22879
upperneck 23.5581 -11.405 6.83507
head 9.66369 -5.0071 1.75011
rclavicle 2.26118e-014 -3.26007e-014
rhumerus 3.39896 63.9998 -97.3457
rradius 140.951
rwrist -9.56292
rhand -11.0065 -31.3266
rfingers 7.12502
rthumb 15.0142 -420.762
lclavicle 2.26118e-014 -3.26007e-014
lhumerus -55.2343 -48.1368 129.897
lradius 90.5749
lwrist 76.6389
lhand -6.75702 4.27047
lfingers 7.12502
lthumb 19.1045 33.3522
rfemur -0.380757 22.8871 27.9641
rtibia 4.40076
rfoot -13.9786 -21.9378
rtoes 1.76963
lfemur 7.94651 -40.0851 -11.7715
ltibia -3.58567
lfoot -17.885 46.3959
ltoes 1.78358
557
root 0.739581 17.466 8.9846 6.57651 0.465408 -9.24354
lowerback -4.02679 1.29828 6.66586
upperback -7.53988 1.80529 2.16174
thorax -5.48373 0.607552 -1.48097
lowerneck -9.38757 -7.43433 -4.10382
upperneck 23.4027 -11.3973 6.74192
head 9.55833 -5.01251 1.70778
rclavicle -7.00716e-015 8.54774e-015
rhumerus 3.2498 63.9936 -97.4544
rradius 140.971
rwrist -9.45647
rhand -11.0883 -31.4078
rfingers 7.12502
rthumb 14.9355 -420.849
lclavicle -7.00716e-015 8.54774e-015
lhumerus -55.3054 -48.0996 129.951
lradius 90.6072
lwrist 76.626
lhand -6.55352 4.4322
lfingers 7.12502
lthumb 19.3002 33.4945
rfemur -0.376095 22.8328 27.9134
rtibia 4.394
rfoot -13.9211 -21.8996
rtoes 1.45544
lfemur 7.88073 -39.8608 -11.7463
ltibia -3.56508
lfoot -17.7263 46.201
ltoes 1.6502
558
root 0.743949 17.4668 8.97672 6.55868 0.462267 -9.20691
lowerback -3.96923 1.27355 6.6652
upperback -7.51974 1.77617 2.15908
thorax -5.49685 0.592878 -1.48445
lowerneck -9.44169 -7.42391 -4.0092
upperneck 23.3164 -11.3642 6.6366
head 9.52321 -5.00079 1.65926
rclavicle 2.00276e-014 -4.67144e-014
rhumerus 3.24423 64.0488 -97.4794
rradius 140.984
rwrist -9.47662
rhand -11.1492 -31.4832
rfingers 7.12502
rthumb 14.8768 -420.929
lclavicle 2.00276e-014 -4.67144e-014
lhumerus -55.2086 -48.0744 129.879
lradius 90.6301
lwrist 76.6627
lhand -6.45423 4.45317
lfingers 7.12502
lthumb 19.3957 33.5059
rfemur -0.381258 22.8442 27.8492
rtibia 4.399
rfoot -13.9119 -21.8957
rtoes 1.39785
lfemur 7.81075 -39.7445 -11.7523
ltibia -3.53325
lfoot -17.595 46.0963
ltoes 1.49214
559
root 0.750028 17.4676 8.96943 6.58015 0.477208 -9.13592
lowerback -3.97017 1.34999 6.69669
upperback -7.50848 1.87215 2.03095
thorax -5.4722 0.635862 -1.6357
lowerneck -9.49531 -7.50675 -3.77217
upperneck 23.2327 -11.4997 6.56766
head 9.49333 -5.05136 1.57943
rclavicle 6.41081e-015 -3.22031e-014
rhumerus 3.33329 63.7858 -97.4201
rradius 140.966
rwrist -9.49314
rhand -11.1766 -31.5677
rfingers 7.12502
rthumb 14.8504 -421.016
lclavicle 6.41081e-015 -3.22031e-014
lhumerus -55.3923 -48.3283 130.039
lradius 90.6385
lwrist 76.7017
lhand -6.51953 4.41507
lfingers 7.12502
lthumb 19.3329 33.4741
rfemur -0.408442 22.8909 27.7311
rtibia 4.37505
rfoot -13.9403 -21.9368
rtoes 1.45966
lfemur 7.71004 -39.7498 -11.8112
ltibia -3.48464
lfoot -17.6057 46.0769
ltoes 1.61713
560
root 0.756593 17.4685 8.96301 6.60004 0.48283 -9.02471
lowerback -4.17884 1.29819 6.56334
upperback -7.35828 1.77708 2.0647
thorax -5.2025 0.607157 -1.52119
lowerneck -9.65786 -7.45649 -3.76655
upperneck 23.1182 -11.4092 6.54586
head 9.4763 -5.00919 1.57662
rclavicle -1.16786e-014 1.39149e-015
rhumerus 3.89487 63.8913 -96.9336
rradius 140.972
rwrist -9.61646
rhand -11.1252 -31.6884
rfingers 7.12502
rthumb 14.8999 -421.133
lclavicle -1.16786e-014 1.39149e-015
lhumerus -54.9165 -48.3229 129.716
lradius 90.6064
lwrist 76.7131
lhand -6.57694 4.4732
lfingers 7.12502
lthumb 19.2777 33.5377
rfemur -0.421958 22.938 27.5684
rtibia 4.32564
rfoot -13.945 -22.0017
rtoes 1.46557
lfemur 7.61077 -39.6821 -11.9021
ltibia -3.46486
lfoot -17.5587 45.9886
ltoes 1.75853
561
root 0.761785 17.4695 8.95658 6.59157 0.499334 -8.9667
lowerback -4.75605 1.10085 6.25446
upperback -6.92193 1.44943 2.32259
thorax -4.44399 0.494586 -1.0713
lowerneck -9.96932 -7.25832 -3.88216
upperneck 22.7949 -11.0635 6.52975
head 9.40595 -4.85871 1.62267
rclavicle 1.37658e-014 2.10712e-014
rhumerus 5.4127 64.3288 -95.5708
rradius 141.016
rwrist -9.87925
rhand -10.9249 -31.8145
rfingers 7.12502
rthumb 15.0928 -421.244
lclavicle 1.37658e-014 2.10712e-014
lhumerus -53.5751 -48.1835 128.724
lradius 90.5957
lwrist 76.7722
lhand -7.02685 4.17099
lfingers 7.12502
lthumb 18.845 33.2781
rfemur -0.407394 23.0861 27.5022
rtibia 4.29952
rfoot -13.9523 -22.1688
rtoes 1.5303
lfemur 7.46403 -39.4008 -11.8509
ltibia -3.44292
lfoot -17.2723 45.6969
ltoes 1.41839
562
root 0.767805 17.4701 8.94982 6.5638 0.531945 -8.95217
lowerback -4.84146 1.05211 6.21541
upperback -6.83018 1.37365 2.36624
thorax -4.30463 0.464809 -1.00371
lowerneck -10.0113 -7.19405 -3.93304
upperneck 22.68 -10.9668 6.59496
head 9.37474 -4.81275 1.66411
rclavicle 3.62782e-015 2.18663e-015
rhumerus 5.6642 64.3124 -95.3418
rradius 141.048
rwrist -9.86985
rhand -10.683 -31.8154
rfingers 7.12502
rthumb 15.3258 -421.228
lclavicle 3.62782e-015 2.18663e-015
lhumerus -53.4108 -48.1612 128.571
lradius 90.6164
lwrist 76.7799
lhand -7.29064 3.79094
lfingers 7.12502
lthumb 18.5913 32.9225
rfemur -0.383519 23.2699 27.4971
rtibia 4.30507
rfoot -13.9913 -22.3667
rtoes 1.65985
lfemur 7.31984 -39.1509 -11.7676
ltibia -3.36823
lfoot -17.1377 45.3963
ltoes 1.26494
563
root 0.776959 17.4706 8.94153 6.53866 0.549654 -8.93054
lowerback -4.20666 1.14454 6.44908
upperback -7.25529 1.56843 2.17467
thorax -5.09612 0.517067 -1.34274
lowerneck -9.70873 -7.26812 -4.00634
upperneck 22.9655 -11.1384 6.77676
head 9.44466 -4.88178 1.72618
rclavicle -4.96962e-015 3.47873e-014
rhumerus 4.09184 63.9889 -96.7703
rradius 141.047
rwrist -9.59877
rhand -10.5505 -31.7079
rfingers 7.12502
rthumb 15.4535 -421.11
lclavicle -4.96962e-015 3.47873e-014
lhumerus -54.5662 -48.0588 129.402
lradius 90.6418
lwrist 76.7938
lhand -7.1164 3.87434
lfingers 7.12502
lthumb 18.7589 32.9898
rfemur -0.390772 23.3172 27.4416
rtibia 4.32024
rfoot -14.0028 -22.4321
rtoes 1.71614
lfemur 7.23377 -39.0392 -11.7676
ltibia -3.30868
lfoot -17.1325 45.2442
ltoes 1.39636
564
root 0.788344 17.4713 8.93298 6.53285 0.54115 -8.89543
lowerback -3.98764 1.18511 6.53485
upperback -7.39181 1.64637 2.08919
thorax -5.35769 0.539088 -1.48389
lowerneck -9.62601 -7.28746 -4.08587
upperneck 23.1264 -11.2231 6.99237
head 9.50991 -4.90366 1.80412
rclavicle -5.81445e-015 -2.50469e-014
rhumerus 3.64882 63.9053 -97.1668
rradius 141.047
rwrist -9.47115
rhand -10.5447 -31.6898
rfingers 7.12502
rthumb 15.459 -421.092
lclavicle -5.81445e-015 -2.50469e-014
lhumerus -54.9154 -48.0525 129.667
lradius 90.6555
lwrist 76.9549
lhand -7.11156 4.12119
lfingers 7.12502
lthumb 18.7635 33.2362
rfemur -0.420839 23.2829 27.3377
rtibia 4.31335
rfoot -13.9658 -22.389
rtoes 1.69608
lfemur 7.16802 -38.9435 -11.8126
ltibia -3.27722
lfoot -16.9795 45.1625
ltoes 1.25039
565
root 0.799053 17.4721 8.92576 6.51602 0.518711 -8.88228
lowerback -4.17198 1.19141 6.47208
upperback -7.22676 1.62979 2.11073
thorax -5.07872 0.545484 -1.42253
lowerneck -9.78968 -7.27406 -4.10009
upperneck 23.1224 -11.239 7.15948
head 9.55237 -4.88953 1.85506
rclavicle -7.65321e-015 4.41302e-014
rhumerus 4.26584 63.8853 -96.5993
rradius 141.05
rwrist -9.49933
rhand -10.5491 -31.7741
rfingers 7.12502
rthumb 15.4548 -421.176
lclavicle -7.65321e-015 4.41302e-014
lhumerus -54.6122 -48.2153 129.456
lradius 90.6635
lwrist 77.0621
lhand -7.05581 4.22386
lfingers 7.12502
lthumb 18.8171 33.3337
rfemur -0.422289 23.3263 27.2796
rtibia 4.29204
rfoot -13.9425 -22.3968
rtoes 1.65277
lfemur 7.19259 -39.009 -11.9103
ltibia -3.26286
lfoot -16.9446 45.2457
ltoes 1.20464
566
root 0.80855 17.4727 8.91824 6.48808 0.481462 -8.93946
lowerback -4.73955 1.11948 6.27937
upperback -6.76221 1.46604 2.32387
thorax -4.28218 0.508475 -1.08353
lowerneck -10.16 -7.21236 -4.04146
upperneck 22.869 -11.1127 7.09908
head 9.51736 -4.82713 1.8279
rclavicle 9.96408e-015 -2.127e-014
rhumerus 5.8778 64.0655 -95.13
rradius 141.041
rwrist -9.70503
rhand -10.5331 -31.8923
rfingers 7.12502
rthumb 15.4702 -421.293
lclavicle 9.96408e-015 -2.127e-014
lhumerus -53.5114 -48.4072 128.679
lradius 90.6958
lwrist 77.1042
lhand -6.97225 4.21538
lfingers 7.12502
lthumb 18.8975 33.3174
rfemur -0.432785 23.4157 27.3147
rtibia 4.30631
rfoot -13.9283 -22.4501
rtoes 1.54038
lfemur 7.28912 -39.1973 -11.9571
ltibia -3.31151
lfoot -17.0921 45.4361
ltoes 1.49036
